<?xml version="1.0" encoding="UTF-8"?>
<!DOCTYPE svg
PUBLIC "-//W3C//DTD SVG 1.1//EN"
       "http://www.w3.org/Graphics/SVG/1.1/DTD/svg11.dtd">
<svg viewBox="84 39 863 409" width="779px" height="370px" xmlns="http://www.w3.org/2000/svg" version="1.1">
   <line x1="555" y1="276" x2="545" y2="276" style="stroke:#333;stroke-width:1;"/>
   <line x1="450" y1="252" x2="440" y2="252" style="stroke:#333;stroke-width:1;"/>
   <line x1="545" y1="276" x2="450" y2="252" style="stroke:#333;stroke-width:1;"/>
   <line x1="547.5" y1="276" x2="551.03553390593" y2="279.53553390593" style="stroke:#333;stroke-width:2;"/>
   <line x1="547.5" y1="276" x2="551.03553390593" y2="272.46446609407" style="stroke:#333;stroke-width:2;"/>
   <line x1="445" y1="252" x2="448.53553390593" y2="255.53553390593" style="stroke:#333;stroke-width:2;"/>
   <line x1="445" y1="252" x2="448.53553390593" y2="248.46446609407" style="stroke:#333;stroke-width:2;"/>
   <line x1="635" y1="296" x2="645" y2="296" style="stroke:#333;stroke-width:1;"/>
   <line x1="747" y1="253" x2="757" y2="253" style="stroke:#333;stroke-width:1;"/>
   <line x1="645" y1="296" x2="747" y2="253" style="stroke:#333;stroke-width:1;"/>
   <line x1="642.5" y1="296" x2="638.96446609407" y2="299.53553390593" style="stroke:#333;stroke-width:2;"/>
   <line x1="642.5" y1="296" x2="638.96446609407" y2="292.46446609407" style="stroke:#333;stroke-width:2;"/>
   <line x1="752" y1="253" x2="748.46446609407" y2="256.53553390593" style="stroke:#333;stroke-width:2;"/>
   <line x1="752" y1="253" x2="748.46446609407" y2="249.46446609407" style="stroke:#333;stroke-width:2;"/>
   <line x1="210" y1="344" x2="220" y2="344" style="stroke:#333;stroke-width:1;"/>
   <line x1="339" y1="252" x2="349" y2="252" style="stroke:#333;stroke-width:1;"/>
   <line x1="220" y1="344" x2="339" y2="252" style="stroke:#333;stroke-width:1;"/>
   <line x1="217.5" y1="344" x2="213.96446609407" y2="347.53553390593" style="stroke:#333;stroke-width:2;"/>
   <line x1="217.5" y1="344" x2="213.96446609407" y2="340.46446609407" style="stroke:#333;stroke-width:2;"/>
   <line x1="344" y1="252" x2="340.46446609407" y2="255.53553390593" style="stroke:#333;stroke-width:2;"/>
   <line x1="344" y1="252" x2="340.46446609407" y2="248.46446609407" style="stroke:#333;stroke-width:2;"/>
   <rect width="91" height="20" x="757" y="223" style="fill:#007;stroke:black;"/>
   <text width="91" height="20" x="762" y="237" style="fill:#fff;" font-family="Arial" font-size="16px"> modulo</text>
   <rect width="91" height="20" x="757" y="243" style="fill:none;stroke:black;"/>
   <text width="91" height="20" x="762" y="257" style="fill:black;" font-family="Arial" font-size="16px">idmodulo</text>
   <rect width="91" height="20" x="757" y="263" style="fill:none;stroke:black;"/>
   <text width="91" height="20" x="762" y="277" style="fill:black;" font-family="Arial" font-size="16px">menu_id</text>
   <rect width="91" height="20" x="757" y="283" style="fill:none;stroke:black;"/>
   <text width="91" height="20" x="762" y="297" style="fill:black;" font-family="Arial" font-size="16px">page</text>
   <rect width="91" height="20" x="757" y="303" style="fill:none;stroke:black;"/>
   <text width="91" height="20" x="762" y="317" style="fill:black;" font-family="Arial" font-size="16px">titulo</text>
   <rect width="91" height="20" x="757" y="323" style="fill:none;stroke:black;"/>
   <text width="91" height="20" x="762" y="337" style="fill:black;" font-family="Arial" font-size="16px">icono</text>
   <rect width="91" height="20" x="757" y="343" style="fill:none;stroke:black;"/>
   <text width="91" height="20" x="762" y="357" style="fill:black;" font-family="Arial" font-size="16px">descripcion</text>
   <rect width="91" height="20" x="757" y="363" style="fill:none;stroke:black;"/>
   <text width="91" height="20" x="762" y="377" style="fill:black;" font-family="Arial" font-size="16px">status</text>
   <rect width="80" height="20" x="555" y="226" style="fill:#007;stroke:black;"/>
   <text width="80" height="20" x="560" y="240" style="fill:#fff;" font-family="Arial" font-size="16px"> permisos</text>
   <rect width="80" height="20" x="555" y="246" style="fill:none;stroke:black;"/>
   <text width="80" height="20" x="560" y="260" style="fill:black;" font-family="Arial" font-size="16px">idpermiso</text>
   <rect width="80" height="20" x="555" y="266" style="fill:none;stroke:black;"/>
   <text width="80" height="20" x="560" y="280" style="fill:black;" font-family="Arial" font-size="16px">rolid</text>
   <rect width="80" height="20" x="555" y="286" style="fill:none;stroke:black;"/>
   <text width="80" height="20" x="560" y="300" style="fill:black;" font-family="Arial" font-size="16px">moduloid</text>
   <rect width="80" height="20" x="555" y="306" style="fill:none;stroke:black;"/>
   <text width="80" height="20" x="560" y="320" style="fill:black;" font-family="Arial" font-size="16px">r</text>
   <rect width="80" height="20" x="555" y="326" style="fill:none;stroke:black;"/>
   <text width="80" height="20" x="560" y="340" style="fill:black;" font-family="Arial" font-size="16px">w</text>
   <rect width="80" height="20" x="555" y="346" style="fill:none;stroke:black;"/>
   <text width="80" height="20" x="560" y="360" style="fill:black;" font-family="Arial" font-size="16px">u</text>
   <rect width="80" height="20" x="555" y="366" style="fill:none;stroke:black;"/>
   <text width="80" height="20" x="560" y="380" style="fill:black;" font-family="Arial" font-size="16px">d</text>
   <rect width="111" height="20" x="99" y="54" style="fill:#007;stroke:black;"/>
   <text width="111" height="20" x="104" y="68" style="fill:#fff;" font-family="Arial" font-size="16px"> persona</text>
   <rect width="111" height="20" x="99" y="74" style="fill:none;stroke:black;"/>
   <text width="111" height="20" x="104" y="88" style="fill:black;" font-family="Arial" font-size="16px">idpersona</text>
   <rect width="111" height="20" x="99" y="94" style="fill:none;stroke:black;"/>
   <text width="111" height="20" x="104" y="108" style="fill:black;" font-family="Arial" font-size="16px">identificacion</text>
   <rect width="111" height="20" x="99" y="114" style="fill:none;stroke:black;"/>
   <text width="111" height="20" x="104" y="128" style="fill:black;" font-family="Arial" font-size="16px">nombres</text>
   <rect width="111" height="20" x="99" y="134" style="fill:none;stroke:black;"/>
   <text width="111" height="20" x="104" y="148" style="fill:black;" font-family="Arial" font-size="16px">a_paterno</text>
   <rect width="111" height="20" x="99" y="154" style="fill:none;stroke:black;"/>
   <text width="111" height="20" x="104" y="168" style="fill:black;" font-family="Arial" font-size="16px">a_materno</text>
   <rect width="111" height="20" x="99" y="174" style="fill:none;stroke:black;"/>
   <text width="111" height="20" x="104" y="188" style="fill:black;" font-family="Arial" font-size="16px">telefono</text>
   <rect width="111" height="20" x="99" y="194" style="fill:none;stroke:black;"/>
   <text width="111" height="20" x="104" y="208" style="fill:black;" font-family="Arial" font-size="16px">email_user</text>
   <rect width="111" height="20" x="99" y="214" style="fill:none;stroke:black;"/>
   <text width="111" height="20" x="104" y="228" style="fill:black;" font-family="Arial" font-size="16px">pswd</text>
   <rect width="111" height="20" x="99" y="234" style="fill:none;stroke:black;"/>
   <text width="111" height="20" x="104" y="248" style="fill:black;" font-family="Arial" font-size="16px">ruc</text>
   <rect width="111" height="20" x="99" y="254" style="fill:none;stroke:black;"/>
   <text width="111" height="20" x="104" y="268" style="fill:black;" font-family="Arial" font-size="16px">nombrefiscal</text>
   <rect width="111" height="20" x="99" y="274" style="fill:none;stroke:black;"/>
   <text width="111" height="20" x="104" y="288" style="fill:black;" font-family="Arial" font-size="16px">direccionfiscal</text>
   <rect width="111" height="20" x="99" y="294" style="fill:none;stroke:black;"/>
   <text width="111" height="20" x="104" y="308" style="fill:black;" font-family="Arial" font-size="16px">content_type</text>
   <rect width="111" height="20" x="99" y="314" style="fill:none;stroke:black;"/>
   <text width="111" height="20" x="104" y="328" style="fill:black;" font-family="Arial" font-size="16px">base_64</text>
   <rect width="111" height="20" x="99" y="334" style="fill:none;stroke:black;"/>
   <text width="111" height="20" x="104" y="348" style="fill:black;" font-family="Arial" font-size="16px">rolid</text>
   <rect width="111" height="20" x="99" y="354" style="fill:none;stroke:black;"/>
   <text width="111" height="20" x="104" y="368" style="fill:black;" font-family="Arial" font-size="16px">datecreated</text>
   <rect width="111" height="20" x="99" y="374" style="fill:none;stroke:black;"/>
   <text width="111" height="20" x="104" y="388" style="fill:black;" font-family="Arial" font-size="16px">status</text>
   <rect width="91" height="20" x="349" y="222" style="fill:#007;stroke:black;"/>
   <text width="91" height="20" x="354" y="236" style="fill:#fff;" font-family="Arial" font-size="16px"> rol</text>
   <rect width="91" height="20" x="349" y="242" style="fill:none;stroke:black;"/>
   <text width="91" height="20" x="354" y="256" style="fill:black;" font-family="Arial" font-size="16px">idrol</text>
   <rect width="91" height="20" x="349" y="262" style="fill:none;stroke:black;"/>
   <text width="91" height="20" x="354" y="276" style="fill:black;" font-family="Arial" font-size="16px">nombrerol</text>
   <rect width="91" height="20" x="349" y="282" style="fill:none;stroke:black;"/>
   <text width="91" height="20" x="354" y="296" style="fill:black;" font-family="Arial" font-size="16px">descripcion</text>
   <rect width="91" height="20" x="349" y="302" style="fill:none;stroke:black;"/>
   <text width="91" height="20" x="354" y="316" style="fill:black;" font-family="Arial" font-size="16px">status</text>
   <rect width="52" height="20" x="556" y="77" style="fill:#007;stroke:black;"/>
   <text width="52" height="20" x="561" y="91" style="fill:#fff;" font-family="Arial" font-size="16px"> status</text>
   <rect width="52" height="20" x="556" y="97" style="fill:none;stroke:black;"/>
   <text width="52" height="20" x="561" y="111" style="fill:black;" font-family="Arial" font-size="16px">id</text>
   <rect width="52" height="20" x="556" y="117" style="fill:none;stroke:black;"/>
   <text width="52" height="20" x="561" y="131" style="fill:black;" font-family="Arial" font-size="16px">status</text>
</svg>
