<?xml version="1.0" encoding="UTF-8"?>
<!DOCTYPE svg
PUBLIC "-//W3C//DTD SVG 1.1//EN"
       "http://www.w3.org/Graphics/SVG/1.1/DTD/svg11.dtd">
<svg viewBox="120 59 963 420" width="843px" height="361px" xmlns="http://www.w3.org/2000/svg" version="1.1">
   <line x1="622" y1="275" x2="612" y2="275" style="stroke:#333;stroke-width:1;"/>
   <line x1="489" y1="263" x2="479" y2="263" style="stroke:#333;stroke-width:1;"/>
   <line x1="612" y1="275" x2="489" y2="263" style="stroke:#333;stroke-width:1;"/>
   <line x1="614.5" y1="275" x2="618.03553390593" y2="278.53553390593" style="stroke:#333;stroke-width:2;"/>
   <line x1="614.5" y1="275" x2="618.03553390593" y2="271.46446609407" style="stroke:#333;stroke-width:2;"/>
   <line x1="484" y1="263" x2="487.53553390593" y2="266.53553390593" style="stroke:#333;stroke-width:2;"/>
   <line x1="484" y1="263" x2="487.53553390593" y2="259.46446609407" style="stroke:#333;stroke-width:2;"/>
   <line x1="702" y1="295" x2="712" y2="295" style="stroke:#333;stroke-width:1;"/>
   <line x1="847" y1="258" x2="857" y2="258" style="stroke:#333;stroke-width:1;"/>
   <line x1="712" y1="295" x2="847" y2="258" style="stroke:#333;stroke-width:1;"/>
   <line x1="709.5" y1="295" x2="705.96446609407" y2="298.53553390593" style="stroke:#333;stroke-width:2;"/>
   <line x1="709.5" y1="295" x2="705.96446609407" y2="291.46446609407" style="stroke:#333;stroke-width:2;"/>
   <line x1="852" y1="258" x2="848.46446609407" y2="261.53553390593" style="stroke:#333;stroke-width:2;"/>
   <line x1="852" y1="258" x2="848.46446609407" y2="254.46446609407" style="stroke:#333;stroke-width:2;"/>
   <line x1="246" y1="355" x2="256" y2="355" style="stroke:#333;stroke-width:1;"/>
   <line x1="378" y1="263" x2="388" y2="263" style="stroke:#333;stroke-width:1;"/>
   <line x1="256" y1="355" x2="378" y2="263" style="stroke:#333;stroke-width:1;"/>
   <line x1="253.5" y1="355" x2="249.96446609407" y2="358.53553390593" style="stroke:#333;stroke-width:2;"/>
   <line x1="253.5" y1="355" x2="249.96446609407" y2="351.46446609407" style="stroke:#333;stroke-width:2;"/>
   <line x1="383" y1="263" x2="379.46446609407" y2="266.53553390593" style="stroke:#333;stroke-width:2;"/>
   <line x1="383" y1="263" x2="379.46446609407" y2="259.46446609407" style="stroke:#333;stroke-width:2;"/>
   <rect width="91" height="20" x="857" y="228" style="fill:#007;stroke:black;"/>
   <text width="91" height="20" x="862" y="242" style="fill:#fff;" font-family="Arial" font-size="16px"> modulo</text>
   <rect width="91" height="20" x="857" y="248" style="fill:none;stroke:black;"/>
   <text width="91" height="20" x="862" y="262" style="fill:black;" font-family="Arial" font-size="16px">idmodulo</text>
   <rect width="91" height="20" x="857" y="268" style="fill:none;stroke:black;"/>
   <text width="91" height="20" x="862" y="282" style="fill:black;" font-family="Arial" font-size="16px">menu_id</text>
   <rect width="91" height="20" x="857" y="288" style="fill:none;stroke:black;"/>
   <text width="91" height="20" x="862" y="302" style="fill:black;" font-family="Arial" font-size="16px">page</text>
   <rect width="91" height="20" x="857" y="308" style="fill:none;stroke:black;"/>
   <text width="91" height="20" x="862" y="322" style="fill:black;" font-family="Arial" font-size="16px">titulo</text>
   <rect width="91" height="20" x="857" y="328" style="fill:none;stroke:black;"/>
   <text width="91" height="20" x="862" y="342" style="fill:black;" font-family="Arial" font-size="16px">icono</text>
   <rect width="91" height="20" x="857" y="348" style="fill:none;stroke:black;"/>
   <text width="91" height="20" x="862" y="362" style="fill:black;" font-family="Arial" font-size="16px">descripcion</text>
   <rect width="91" height="20" x="857" y="368" style="fill:none;stroke:black;"/>
   <text width="91" height="20" x="862" y="382" style="fill:black;" font-family="Arial" font-size="16px">status</text>
   <rect width="80" height="20" x="622" y="225" style="fill:#007;stroke:black;"/>
   <text width="80" height="20" x="627" y="239" style="fill:#fff;" font-family="Arial" font-size="16px"> permisos</text>
   <rect width="80" height="20" x="622" y="245" style="fill:none;stroke:black;"/>
   <text width="80" height="20" x="627" y="259" style="fill:black;" font-family="Arial" font-size="16px">idpermiso</text>
   <rect width="80" height="20" x="622" y="265" style="fill:none;stroke:black;"/>
   <text width="80" height="20" x="627" y="279" style="fill:black;" font-family="Arial" font-size="16px">rolid</text>
   <rect width="80" height="20" x="622" y="285" style="fill:none;stroke:black;"/>
   <text width="80" height="20" x="627" y="299" style="fill:black;" font-family="Arial" font-size="16px">moduloid</text>
   <rect width="80" height="20" x="622" y="305" style="fill:none;stroke:black;"/>
   <text width="80" height="20" x="627" y="319" style="fill:black;" font-family="Arial" font-size="16px">r</text>
   <rect width="80" height="20" x="622" y="325" style="fill:none;stroke:black;"/>
   <text width="80" height="20" x="627" y="339" style="fill:black;" font-family="Arial" font-size="16px">w</text>
   <rect width="80" height="20" x="622" y="345" style="fill:none;stroke:black;"/>
   <text width="80" height="20" x="627" y="359" style="fill:black;" font-family="Arial" font-size="16px">u</text>
   <rect width="80" height="20" x="622" y="365" style="fill:none;stroke:black;"/>
   <text width="80" height="20" x="627" y="379" style="fill:black;" font-family="Arial" font-size="16px">d</text>
   <rect width="111" height="20" x="135" y="85" style="fill:#007;stroke:black;"/>
   <text width="111" height="20" x="140" y="99" style="fill:#fff;" font-family="Arial" font-size="16px"> persona</text>
   <rect width="111" height="20" x="135" y="105" style="fill:none;stroke:black;"/>
   <text width="111" height="20" x="140" y="119" style="fill:black;" font-family="Arial" font-size="16px">idpersona</text>
   <rect width="111" height="20" x="135" y="125" style="fill:none;stroke:black;"/>
   <text width="111" height="20" x="140" y="139" style="fill:black;" font-family="Arial" font-size="16px">identificacion</text>
   <rect width="111" height="20" x="135" y="145" style="fill:none;stroke:black;"/>
   <text width="111" height="20" x="140" y="159" style="fill:black;" font-family="Arial" font-size="16px">nombres</text>
   <rect width="111" height="20" x="135" y="165" style="fill:none;stroke:black;"/>
   <text width="111" height="20" x="140" y="179" style="fill:black;" font-family="Arial" font-size="16px">a_paterno</text>
   <rect width="111" height="20" x="135" y="185" style="fill:none;stroke:black;"/>
   <text width="111" height="20" x="140" y="199" style="fill:black;" font-family="Arial" font-size="16px">a_materno</text>
   <rect width="111" height="20" x="135" y="205" style="fill:none;stroke:black;"/>
   <text width="111" height="20" x="140" y="219" style="fill:black;" font-family="Arial" font-size="16px">telefono</text>
   <rect width="111" height="20" x="135" y="225" style="fill:none;stroke:black;"/>
   <text width="111" height="20" x="140" y="239" style="fill:black;" font-family="Arial" font-size="16px">email_user</text>
   <rect width="111" height="20" x="135" y="245" style="fill:none;stroke:black;"/>
   <text width="111" height="20" x="140" y="259" style="fill:black;" font-family="Arial" font-size="16px">pswd</text>
   <rect width="111" height="20" x="135" y="265" style="fill:none;stroke:black;"/>
   <text width="111" height="20" x="140" y="279" style="fill:black;" font-family="Arial" font-size="16px">ruc</text>
   <rect width="111" height="20" x="135" y="285" style="fill:none;stroke:black;"/>
   <text width="111" height="20" x="140" y="299" style="fill:black;" font-family="Arial" font-size="16px">nombrefiscal</text>
   <rect width="111" height="20" x="135" y="305" style="fill:none;stroke:black;"/>
   <text width="111" height="20" x="140" y="319" style="fill:black;" font-family="Arial" font-size="16px">direccionfiscal</text>
   <rect width="111" height="20" x="135" y="325" style="fill:none;stroke:black;"/>
   <text width="111" height="20" x="140" y="339" style="fill:black;" font-family="Arial" font-size="16px">token</text>
   <rect width="111" height="20" x="135" y="345" style="fill:none;stroke:black;"/>
   <text width="111" height="20" x="140" y="359" style="fill:black;" font-family="Arial" font-size="16px">rolid</text>
   <rect width="111" height="20" x="135" y="365" style="fill:none;stroke:black;"/>
   <text width="111" height="20" x="140" y="379" style="fill:black;" font-family="Arial" font-size="16px">datecreated</text>
   <rect width="111" height="20" x="135" y="385" style="fill:none;stroke:black;"/>
   <text width="111" height="20" x="140" y="399" style="fill:black;" font-family="Arial" font-size="16px">status</text>
   <rect width="91" height="20" x="388" y="233" style="fill:#007;stroke:black;"/>
   <text width="91" height="20" x="393" y="247" style="fill:#fff;" font-family="Arial" font-size="16px"> rol</text>
   <rect width="91" height="20" x="388" y="253" style="fill:none;stroke:black;"/>
   <text width="91" height="20" x="393" y="267" style="fill:black;" font-family="Arial" font-size="16px">idrol</text>
   <rect width="91" height="20" x="388" y="273" style="fill:none;stroke:black;"/>
   <text width="91" height="20" x="393" y="287" style="fill:black;" font-family="Arial" font-size="16px">nombrerol</text>
   <rect width="91" height="20" x="388" y="293" style="fill:none;stroke:black;"/>
   <text width="91" height="20" x="393" y="307" style="fill:black;" font-family="Arial" font-size="16px">descripcion</text>
   <rect width="91" height="20" x="388" y="313" style="fill:none;stroke:black;"/>
   <text width="91" height="20" x="393" y="327" style="fill:black;" font-family="Arial" font-size="16px">status</text>
   <rect width="52" height="20" x="624" y="74" style="fill:#007;stroke:black;"/>
   <text width="52" height="20" x="629" y="88" style="fill:#fff;" font-family="Arial" font-size="16px"> status</text>
   <rect width="52" height="20" x="624" y="94" style="fill:none;stroke:black;"/>
   <text width="52" height="20" x="629" y="108" style="fill:black;" font-family="Arial" font-size="16px">id</text>
   <rect width="52" height="20" x="624" y="114" style="fill:none;stroke:black;"/>
   <text width="52" height="20" x="629" y="128" style="fill:black;" font-family="Arial" font-size="16px">status</text>
</svg>
